<svg width="13" height="11" viewBox="0 0 13 11" fill="none" xmlns="http://www.w3.org/2000/svg">
<path d="M9.77126 5.94714H0.80257C0.575176 5.94714 0.3847 5.88066 0.231142 5.74771C0.0775844 5.61476 0.000537812 5.45042 2.76747e-06 5.25469C-0.000532277 5.05895 0.0765143 4.89461 0.231142 4.76166C0.38577 4.62871 0.576246 4.56224 0.80257 4.56224H9.77126L5.83868 1.16923C5.67817 1.03074 5.60112 0.869167 5.60754 0.684514C5.61396 0.49986 5.69769 0.338288 5.85874 0.199798C6.01926 0.0728489 6.20652 0.00637393 6.42054 0.00037269C6.63456 -0.00562855 6.82182 0.0608464 6.98234 0.199798L12.2793 4.76997C12.3595 4.83922 12.4165 4.91423 12.4502 4.99502C12.4839 5.0758 12.5005 5.16236 12.5 5.25469C12.4995 5.34701 12.4829 5.43357 12.4502 5.51436C12.4176 5.59514 12.3606 5.67016 12.2793 5.7394L6.98234 10.3096C6.8352 10.4365 6.65141 10.5 6.43097 10.5C6.21054 10.5 6.01979 10.4365 5.85874 10.3096C5.69823 10.1711 5.61797 10.0067 5.61797 9.81655C5.61797 9.62636 5.69823 9.46178 5.85874 9.32283L9.77126 5.94714Z" fill="#CBD5E1"/>
</svg>
